<svg width="24" height="24" viewBox="0 0 24 24" fill="none" xmlns="http://www.w3.org/2000/svg">
<path fill-rule="evenodd" clip-rule="evenodd" d="M23 12C23 18.0751 18.0751 23 12 23C5.92487 23 1 18.0751 1 12C1 5.92487 5.92487 1 12 1C18.0751 1 23 5.92487 23 12ZM10.7974 7.89848C11.2454 7.63524 11.772 7.53901 12.2841 7.62684C12.7961 7.71468 13.2606 7.9809 13.5952 8.37837C13.9298 8.77584 14.1129 9.2789 14.1121 9.79845L14.1121 9.80009C14.1121 10.3161 13.7105 10.8541 12.952 11.3598C12.6062 11.5904 12.2525 11.768 11.981 11.8886C11.8468 11.9483 11.7365 11.9923 11.6623 12.0206C11.6253 12.0347 11.5976 12.0447 11.5807 12.0508L11.5631 12.0569C10.9875 12.2495 10.6766 12.872 10.8686 13.4479C11.0607 14.0243 11.6836 14.3358 12.26 14.1436L12.2614 14.1432L12.263 14.1426L12.2673 14.1412L12.2795 14.137L12.3177 14.1236C12.3491 14.1125 12.3923 14.0967 12.4455 14.0765C12.5518 14.036 12.6993 13.9769 12.8745 13.899C13.2217 13.7447 13.6931 13.5098 14.1723 13.1903C15.0636 12.5962 16.3116 11.4845 16.3121 9.8011C16.3135 8.76222 15.9473 7.75635 15.2782 6.96157C14.6091 6.16663 13.6801 5.63418 12.656 5.45851C11.6318 5.28284 10.5786 5.4753 9.68273 6.00179C8.78688 6.52829 8.10628 7.35484 7.76146 8.33506C7.55986 8.90815 7.86101 9.53616 8.4341 9.73776C9.00719 9.93936 9.6352 9.63821 9.8368 9.06512C10.0092 8.57501 10.3495 8.16173 10.7974 7.89848ZM12.0001 16.4001C11.3926 16.4001 10.9001 16.8926 10.9001 17.5001C10.9001 18.1076 11.3926 18.6001 12.0001 18.6001H12.0111C12.6186 18.6001 13.1111 18.1076 13.1111 17.5001C13.1111 16.8926 12.6186 16.4001 12.0111 16.4001H12.0001Z" fill="#0000F0"/>
</svg>
