<svg width="24" height="24" viewBox="0 0 24 24" fill="none" xmlns="http://www.w3.org/2000/svg">
<path d="M22 12.0089C21.9978 14.4972 21.068 16.8952 19.3922 18.7346C17.7165 20.5739 15.4152 21.7225 12.938 21.9559C10.4607 22.1893 7.98538 21.4907 5.9956 19.9967C4.00583 18.5026 2.64454 16.3204 2.17765 13.8764C1.71075 11.4323 2.17181 8.90201 3.47075 6.77972C4.76968 4.65742 6.81318 3.09562 9.20204 2.39942C11.5909 1.70321 14.1535 1.92262 16.3893 3.01477C18.5257 4.05841 20.217 5.82734 21.1652 8M2.75 8H21.25M3 16H20.45M11.9746 22C14.5921 22 15.4647 17.4545 15.4647 12C15.4647 6.54545 14.5921 2 11.9746 2C9.35714 2 8.48463 6.54545 8.48463 12C8.48463 17.4545 9.35714 22 11.9746 22Z" stroke="#000" stroke-width="2" stroke-linecap="round" stroke-linejoin="round"/>
</svg>
