<svg width="24" height="24" viewBox="0 0 24 24" fill="none" xmlns="http://www.w3.org/2000/svg">
<path fill-rule="evenodd" clip-rule="evenodd" d="M4 2C2.89543 2 2 2.89543 2 4V20C2 21.1046 2.89543 22 4 22H20C21.1046 22 22 21.1046 22 20V4C22 2.89543 21.1046 2 20 2H4ZM12 8.5C11.4477 8.5 11 8.05228 11 7.5V6C11 5.44771 11.4477 5 12 5C12.5523 5 13 5.44771 13 6V7.5C13 8.05228 12.5523 8.5 12 8.5ZM12 19C11.4477 19 11 18.5523 11 18V11.5C11 10.9477 11.4477 10.5 12 10.5C12.5523 10.5 13 10.9477 13 11.5L13 18C13 18.5523 12.5523 19 12 19Z" fill="#000"/>
</svg>
