<svg width="24" height="24" viewBox="0 0 24 24" fill="none" xmlns="http://www.w3.org/2000/svg">
<path d="M5 10C4.44772 10 4 10.4477 4 11C4 11.5523 4.44772 12 5 12V10ZM17 12C17.5523 12 18 11.5523 18 11C18 10.4477 17.5523 10 17 10V12ZM7 5C6.44772 5 6 5.44772 6 6C6 6.55228 6.44772 7 7 7V5ZM17 7C17.5523 7 18 6.55228 18 6C18 5.44772 17.5523 5 17 5V7ZM13 20C13.5523 20 14 19.5523 14 19C14 18.4477 13.5523 18 13 18V20ZM16 19V18C15.5955 18 15.2309 18.2436 15.0761 18.6173C14.9213 18.991 15.0069 19.4211 15.2929 19.7071L16 19ZM11 11C11 11.5523 11.4477 12 12 12C12.5523 12 13 11.5523 13 11H11ZM13 6C13 5.44772 12.5523 5 12 5C11.4477 5 11 5.44772 11 6H13ZM4.29289 21.2929C3.90237 21.6834 3.90237 22.3166 4.29289 22.7071C4.68342 23.0976 5.31658 23.0976 5.70711 22.7071L4.29289 21.2929ZM8.70711 19.7071C9.09763 19.3166 9.09763 18.6834 8.70711 18.2929C8.31658 17.9024 7.68342 17.9024 7.29289 18.2929L8.70711 19.7071ZM18.2929 22.7071C18.6834 23.0976 19.3166 23.0976 19.7071 22.7071C20.0976 22.3166 20.0976 21.6834 19.7071 21.2929L18.2929 22.7071ZM15.99 14C15.4377 14 14.99 14.4477 14.99 15C14.99 15.5523 15.4377 16 15.99 16V14ZM16 16C16.5523 16 17 15.5523 17 15C17 14.4477 16.5523 14 16 14V16ZM8 14C7.44772 14 7 14.4477 7 15C7 15.5523 7.44772 16 8 16V14ZM8.00998 16C8.56226 16 9.00998 15.5523 9.00998 15C9.00998 14.4477 8.56226 14 8.00998 14V16ZM5 12H17V10H5V12ZM7 7H17V5H7V7ZM13 18H6.17V20H13V18ZM6.17 18C5.52228 18 5 17.4777 5 16.83H3C3 18.5823 4.41772 20 6.17 20V18ZM5 16.83V7.17H3V16.83H5ZM5 7.17C5 6.59107 5.01404 5.63728 5.75247 4.79362C6.4834 3.95854 8.1411 3 12 3V1C7.8589 1 5.5166 2.02646 4.24753 3.47638C2.98596 4.91772 3 6.54893 3 7.17H5ZM12 3C15.8589 3 17.5166 3.95854 18.2475 4.79362C18.986 5.63728 19 6.59107 19 7.17H21C21 6.54893 21.014 4.91772 19.7525 3.47638C18.4834 2.02646 16.1411 1 12 1V3ZM19 7.17V16.83H21V7.17H19ZM19 16.83C19 17.4777 18.4777 18 17.83 18V20C19.5823 20 21 18.5823 21 16.83H19ZM17.83 18H16V20H17.83V18ZM13 11V6H11V11H13ZM5.70711 22.7071L8.70711 19.7071L7.29289 18.2929L4.29289 21.2929L5.70711 22.7071ZM19.7071 21.2929L16.7071 18.2929L15.2929 19.7071L18.2929 22.7071L19.7071 21.2929ZM15.99 16H16V14H15.99V16ZM8 16H8.00998V14H8V16Z" fill="#0000F0"/>
</svg>
