<svg width="24" height="24" viewBox="0 0 24 24" fill="none" xmlns="http://www.w3.org/2000/svg">
<path d="M14 17.4649C13.4117 17.8052 12.7286 18 12 18C9.79086 18 8 16.2091 8 14C8 11.7909 9.79086 10 12 10C14.2091 10 16 11.7909 16 14C16 14.5694 15.881 15.1109 15.6666 15.6011M7.55556 7.36364C7.55556 7.36364 7.55555 4.22733 7.55555 3.31824C7.55555 1.95461 6.44444 1.50006 5.77778 1.50006C5.11111 1.50006 4.00006 1.95461 4.00002 3.31824C4 4.22733 4 5.63637 4 5.63637C4 5.63637 4.00001 11.4554 4.00001 13.8182C4.00001 18.3636 7.58172 22 12 22C16.4183 22 20 18.3369 20 13.8182C20 9.2995 16.4183 6.00001 12 6.00001C11.6914 6.00001 11.3946 6.01828 11.1111 6.05059M11 14.0001C11 14.5523 10.5523 15.0001 10 15.0001C9.44771 15.0001 9 14.5523 9 14.0001C9 13.4478 9.44771 13.0001 10 13.0001C10.5523 13.0001 11 13.4478 11 14.0001Z" stroke="#000" stroke-width="2" stroke-linecap="round" stroke-linejoin="round"/>
</svg>
