<svg xmlns="http://www.w3.org/2000/svg" fill="none" viewBox="0 0 24 24">
  <path stroke="currentColor" stroke-linecap="round" stroke-linejoin="round" stroke-width="2" d="M14 2v4.4c0 .56 0 .84.109 1.054a1 1 0 00.437.437c.214.11.494.11 1.054.11H20zm0 0H8.8c-1.68 0-2.52 0-3.162.327a3 3 0 00-1.311 1.311C4 4.28 4 5.12 4 6.8v10.4c0 1.68 0 2.52.327 3.162a3 3 0 001.311 1.311C6.28 22 7.12 22 8.8 22h6.4c1.68 0 2.52 0 3.162-.327a3 3 0 001.311-1.311C20 19.72 20 18.88 20 17.2V12m-8 6v-3m0 0v-3m0 3H9m3 0h3"/>
</svg>
