<svg xmlns="http://www.w3.org/2000/svg" fill="none" viewBox="0 0 24 24">
  <path stroke="currentColor" stroke-linecap="round" stroke-linejoin="round" stroke-width="2" d="M10.723 5.092A9 9 0 0112 5c5.186 0 8.589 4.505 9.732 6.287.138.215.207.323.246.49.03.125.03.322 0 .447-.039.166-.108.274-.248.492a17.5 17.5 0 01-1.384 1.865M6.64 6.715c-2.196 1.467-3.687 3.504-4.37 4.57-.14.217-.21.325-.248.492-.03.124-.03.321 0 .446.039.167.108.274.246.49C3.411 14.495 6.814 19 12 19c2.091 0 3.892-.732 5.372-1.723M2.858 3l18.284 18M9.845 9.879A2.97 2.97 0 008.953 12c0 1.657 1.364 3 3.047 3 .841 0 1.603-.336 2.155-.879"/>
</svg>
