<svg xmlns="http://www.w3.org/2000/svg" fill="none" viewBox="0 0 24 24">
  <path stroke="currentColor" stroke-linecap="round" stroke-linejoin="round" stroke-width="2" d="M16.403 21.74c.607.173.91.259 1.354.26a3.6 3.6 0 001.589-.413c.387-.218.672-.502 1.241-1.072l.17-.17c.57-.57.856-.856 1.012-1.163a2.15 2.15 0 000-1.94c-.156-.307-.441-.593-1.012-1.164l-.21-.21c-.376-.375-.564-.563-.753-.686a2.15 2.15 0 00-2.343 0c-.19.123-.377.31-.753.686-.123.123-.184.185-.256.236a1.12 1.12 0 01-.927.158 2 2 0 01-.286-.121 15.7 15.7 0 01-4.31-3.06 15.7 15.7 0 01-3.06-4.31c-.064-.134-.096-.201-.121-.286a1.12 1.12 0 01.158-.927c.051-.072.113-.133.236-.256.375-.376.563-.564.686-.753a2.15 2.15 0 000-2.343c-.123-.19-.31-.377-.686-.753l-.21-.21c-.571-.57-.857-.856-1.164-1.012a2.15 2.15 0 00-1.94 0c-.307.156-.593.441-1.164 1.013l-.17.169c-.569.57-.853.854-1.07 1.241A3.6 3.6 0 002 6.243c.001.444.087.747.26 1.354a20.47 20.47 0 005.238 8.905c1.6 1.6 3.4 2.882 5.318 3.844"/>
</svg>
