<svg xmlns="http://www.w3.org/2000/svg" fill="none" viewBox="0 0 24 24">
  <path fill="currentColor" d="M5 10a1 1 0 100 2zm12 2a1 1 0 100-2zM7 5a1 1 0 000 2zm10 2a1 1 0 100-2zm-4 13a1 1 0 100-2zm3-1v-1a1 1 0 00-.707 1.707zm-5-8a1 1 0 102 0zm2-5a1 1 0 10-2 0zM4.293 21.293a1 1 0 101.414 1.414zm4.414-1.586a1 1 0 10-1.414-1.414zm9.586 3a1 1 0 001.414-1.414zM15.99 14a1 1 0 100 2zm.01 2a1 1 0 100-2zm-8-2a1 1 0 100 2zm.01 2a1 1 0 100-2zM5 12h12v-2H5zm2-5h10V5H7zm6 11H6.17v2H13zm-6.83 0C5.522 18 5 17.478 5 16.83H3A3.17 3.17 0 006.17 20zM5 16.83V7.17H3v9.66zm0-9.66c0-.579.014-1.533.752-2.376C6.483 3.959 8.142 3 12 3V1C7.859 1 5.517 2.026 4.248 3.476 2.986 4.918 3 6.55 3 7.17zM12 3c3.859 0 5.517.959 6.247 1.794.739.843.753 1.797.753 2.376h2c0-.621.014-2.252-1.247-3.694C18.483 2.026 16.14 1 12 1zm7 4.17v9.66h2V7.17zm0 9.66c0 .648-.522 1.17-1.17 1.17v2A3.17 3.17 0 0021 16.83zM17.83 18H16v2h1.83zM13 11V6h-2v5zM5.707 22.707l3-3-1.414-1.414-3 3zm14-1.414-3-3-1.414 1.414 3 3zM15.99 16H16v-2h-.01zM8 16h.01v-2H8z"/>
</svg>
