<svg xmlns="http://www.w3.org/2000/svg" fill="none" viewBox="0 0 24 24">
  <path stroke="currentColor" stroke-linecap="round" stroke-linejoin="round" stroke-width="2" d="M2 7.679c.986-.907 1.277-1.243 2.233-2.15C5.547 4.34 6.54 3.64 7.2 3.58c1.557-.159 2.513 1.03 2.876 3.41.386 2.568.66 4.163.808 4.788.446 2.126.945 3.191 1.48 3.191.416 0 2.086-1.637 2.924-3.02a8.3 8.3 0 001.349-3.157c.118-1.19-1.003-1.296-2.02-1.296-1.015 0-.809-.153-.809-.153.81-2.347 2.502-4.434 5.277-4.34 2.057.065 3.025 1.266 2.906 3.987q-.135 3.05-4.076 8.35c-2.716 3.693-5.022 5.66-6.9 5.66-1.164 0-2.15-1.249-2.959-3.498-.54-2.061-1.075-4.122-1.616-6.184a11.2 11.2 0 00-.927-2.526"/>
</svg>
