<svg xmlns="http://www.w3.org/2000/svg" fill="none" viewBox="0 0 24 24">
  <path fill="currentColor" d="M11.207 17.793a1 1 0 00-1.414 1.414zM12 20l-.707.707a1 1 0 001.414 0zm2.207-.793a1 1 0 00-1.414-1.414zM12 5V4zm6.432 2.823a1 1 0 001.136-1.646zM4.44 6.171a1 1 0 001.118 1.658zM22 14h-1zm-4 4v1zm-4-4h-1zm4-4V9zm5 1a1 1 0 100-2zm-.1 2.001a1 1 0 10-1.96.398zM2 14h1zm4 4v1zm4-4h1zm-4-4V9zm-2.94 3.399A1 1 0 001.1 13zM1 9a1 1 0 000 2zm8.793 10.207 1.5 1.5 1.414-1.414-1.5-1.5zm2.914 1.5 1.5-1.5-1.414-1.414-1.5 1.5zM12 6c2.46 0 4.672.608 6.432 1.823l1.136-1.646C17.413 4.69 14.783 4 12 4zM5.56 7.83C7.31 6.647 9.595 6 12 6V4c-2.745 0-5.433.737-7.56 2.17zM18 14v2a2 2 0 002-2zm0 0h-2a2 2 0 002 2zm0 0v-2a2 2 0 00-2 2zm0 0h2a2 2 0 00-2-2zM6 14v2a2 2 0 002-2zm0 0H4a2 2 0 002 2zm0 0v-2a2 2 0 00-2 2zm0 0h2a2 2 0 00-2-2zm15 0a3 3 0 01-3 3v2a5 5 0 005-5zm-3 3a3 3 0 01-3-3h-2a5 5 0 005 5zm-3-3a3 3 0 013-3V9a5 5 0 00-5 5zm3-3h5V9h-5zm2.94 2.399q.06.29.06.601h2q0-.512-.1-.999zM1 14a5 5 0 005 5v-2a3 3 0 01-3-3zm5 5a5 5 0 005-5H9a3 3 0 01-3 3zm5-5a5 5 0 00-5-5v2a3 3 0 013 3zm-9.9-.999Q1 13.488 1 14h2q0-.311.06-.601zM6 9H1v2h5z"/>
</svg>
